<svg xmlns="http://www.w3.org/2000/svg" viewBox="0 0 160 220" width="160" height="220">
  <defs>
    <linearGradient id="spellFrameGradient" x1="0%" y1="0%" x2="100%" y2="100%">
      <stop offset="0%" stop-color="#9b59b6" />
      <stop offset="100%" stop-color="#8e44ad" />
    </linearGradient>
    <mask id="cardMask">
      <rect width="160" height="220" fill="white" />
      <rect x="20" y="40" width="120" height="100" fill="black" rx="5" ry="5" />
    </mask>
    <filter id="glow" x="-50%" y="-50%" width="200%" height="200%">
      <feGaussianBlur stdDeviation="2" result="blur" />
      <feComposite in="SourceGraphic" in2="blur" operator="over" />
    </filter>
  </defs>
  
  <!-- Card base with mask applied -->
  <rect width="160" height="220" rx="10" ry="10" fill="url(#spellFrameGradient)" mask="url(#cardMask)" />
  

  <!-- Bottom area for stats -->
  <rect x="20" y="175" width="120" height="35" rx="5" ry="5" fill="rgba(0,0,0,0.2)" />
  
  <!-- Add a thin inner border around the artwork area with glow -->
  <rect x="20" y="40" width="120" height="100" rx="5" ry="5" fill="none" stroke="rgba(95, 62, 216, 0.4)" stroke-width="2.5" filter="url(#glow)" />
  
  <!-- Spell rune decorations -->
  <path d="M15,50 Q20,45 25,50 Q30,55 35,50" stroke="rgba(255,255,255,0.4)" stroke-width="1.5" fill="none" />
  <path d="M15,130 Q20,135 25,130 Q30,125 35,130" stroke="rgba(255,255,255,0.4)" stroke-width="1.5" fill="none" />
  <path d="M125,50 Q130,45 135,50 Q140,55 145,50" stroke="rgba(255,255,255,0.4)" stroke-width="1.5" fill="none" />
  <path d="M125,130 Q130,135 135,130 Q140,125 145,130" stroke="rgba(255,255,255,0.4)" stroke-width="1.5" fill="none" />
</svg>